<?xml version="1.0" encoding="UTF-8"?>
<svg height="128px" viewBox="0 0 128 128" width="128px" xmlns="http://www.w3.org/2000/svg" xmlns:xlink="http://www.w3.org/1999/xlink">
    <filter id="a" height="100%" width="100%" x="0%" y="0%">
        <feColorMatrix color-interpolation-filters="sRGB" values="0 0 0 0 1 0 0 0 0 1 0 0 0 0 1 0 0 0 1 0"/>
    </filter>
    <linearGradient id="b" gradientUnits="userSpaceOnUse" x1="8.0000455" x2="120.0000455" y1="116.000468" y2="116.000468">
        <stop offset="0" stop-color="#5a8067"/>
        <stop offset="0.0357143" stop-color="#7bb28e"/>
        <stop offset="0.0713653" stop-color="#6d9e7e"/>
        <stop offset="0.928571" stop-color="#6d9e7e"/>
        <stop offset="0.964286" stop-color="#7bb28e"/>
        <stop offset="1" stop-color="#5a8067"/>
    </linearGradient>
    <linearGradient id="c" gradientUnits="userSpaceOnUse" x1="22.383152" x2="49.932594" y1="120.234802" y2="120.234802">
        <stop offset="0" stop-color="#598066"/>
        <stop offset="1" stop-color="#7db28f"/>
    </linearGradient>
    <clipPath id="d">
        <rect height="128" width="128"/>
    </clipPath>
    <clipPath id="e">
        <rect height="128" width="128"/>
    </clipPath>
    <mask id="f">
        <g filter="url(#a)">
            <g clip-path="url(#e)" filter="url(#a)">
                <g clip-path="url(#d)">
                    <path d="m 16 40 h 96 c 4.417969 0 8 3.582031 8 8 v 60 c 0 4.417969 -3.582031 8 -8 8 h -96 c -4.417969 0 -8 -3.582031 -8 -8 v -60 c 0 -4.417969 3.582031 -8 8 -8 z m 0 0" fill="url(#b)"/>
                    <path d="m 16 28 h 96 c 4.417969 0 8 3.582031 8 8 v 68 c 0 4.417969 -3.582031 8 -8 8 h -96 c -4.417969 0 -8 -3.582031 -8 -8 v -68 c 0 -4.417969 3.582031 -8 8 -8 z m 0 0" fill="#98dcae"/>
                    <path d="m 17.230469 31.371094 h 93.539062 c 3.042969 0 5.511719 2.429687 5.511719 5.429687 v 66.398438 c 0 3 -2.46875 5.429687 -5.511719 5.429687 h -93.539062 c -3.042969 0 -5.511719 -2.429687 -5.511719 -5.429687 v -66.398438 c 0 -3 2.46875 -5.429687 5.511719 -5.429687 z m 0 0" fill="#2f483e"/>
                    <path d="m 22.382812 112 h 27.550782 l -27.550782 10.421875 z m 0 0" fill="#98dcaf"/>
                    <path d="m 22.382812 122.421875 l 27.550782 -10.421875 v 4 l -27.550782 10.417969 z m 0 0" fill="url(#c)"/>
                    <path d="m 95.785156 81.988281 v 5.703125 h -29.707031 v -5.703125 z m 0 0" fill="#91d0a7"/>
                    <path d="m 53.941406 70 l -4.035156 4.03125 l -17.691406 -17.691406 l 4.03125 -4.03125 z m 0 0" fill="#89c69d"/>
                    <path d="m 36.246094 87.691406 l -4.03125 -4.03125 l 17.691406 -17.691406 l 4.035156 4.03125 z m 0 0" fill="#89c49d"/>
                    <path d="m 25.921875 105.242188 l 32.722656 0.085937 l -32.722656 12.246094 z m 0 0" fill="#2f483e"/>
                </g>
            </g>
        </g>
    </mask>
    <mask id="g">
        <g filter="url(#a)">
            <rect fill-opacity="0.8" height="184.32" width="184.32" x="-28.16" y="-28.16"/>
        </g>
    </mask>
    <linearGradient id="h" gradientTransform="matrix(0 0.37 -0.98462 0 295.38501 -30.360001)" gradientUnits="userSpaceOnUse" x1="300" x2="428" y1="235" y2="235">
        <stop offset="0" stop-color="#f9f06b"/>
        <stop offset="1" stop-color="#f5c211"/>
    </linearGradient>
    <clipPath id="i">
        <rect height="128" width="128"/>
    </clipPath>
    <clipPath id="j">
        <rect height="128" width="128"/>
    </clipPath>
    <path d="m 16 40 h 96 c 4.417969 0 8 3.582031 8 8 v 60 c 0 4.417969 -3.582031 8 -8 8 h -96 c -4.417969 0 -8 -3.582031 -8 -8 v -60 c 0 -4.417969 3.582031 -8 8 -8 z m 0 0" fill="url(#b)"/>
    <path d="m 16 28 h 96 c 4.417969 0 8 3.582031 8 8 v 68 c 0 4.417969 -3.582031 8 -8 8 h -96 c -4.417969 0 -8 -3.582031 -8 -8 v -68 c 0 -4.417969 3.582031 -8 8 -8 z m 0 0" fill="#98dcae"/>
    <path d="m 17.230469 31.371094 h 93.539062 c 3.042969 0 5.511719 2.429687 5.511719 5.429687 v 66.398438 c 0 3 -2.46875 5.429687 -5.511719 5.429687 h -93.539062 c -3.042969 0 -5.511719 -2.429687 -5.511719 -5.429687 v -66.398438 c 0 -3 2.46875 -5.429687 5.511719 -5.429687 z m 0 0" fill="#2f483e"/>
    <path d="m 22.382812 112 h 27.550782 l -27.550782 10.421875 z m 0 0" fill="#98dcaf"/>
    <path d="m 22.382812 122.421875 l 27.550782 -10.421875 v 4 l -27.550782 10.417969 z m 0 0" fill="url(#c)"/>
    <path d="m 95.785156 81.988281 v 5.703125 h -29.707031 v -5.703125 z m 0 0" fill="#91d0a7"/>
    <path d="m 53.941406 70 l -4.035156 4.03125 l -17.691406 -17.691406 l 4.03125 -4.03125 z m 0 0" fill="#89c69d"/>
    <path d="m 36.246094 87.691406 l -4.03125 -4.03125 l 17.691406 -17.691406 l 4.035156 4.03125 z m 0 0" fill="#89c49d"/>
    <path d="m 25.921875 105.242188 l 32.722656 0.085937 l -32.722656 12.246094 z m 0 0" fill="#2f483e"/>
    <g mask="url(#f)">
        <g clip-path="url(#j)">
            <g mask="url(#g)">
                <g clip-path="url(#i)">
                    <path d="m 128 80.640625 v 47.359375 h -128 v -47.359375 z m 0 0" fill="url(#h)"/>
                    <path d="m 13.308594 80.640625 l 47.355468 47.359375 h 21.214844 l -47.359375 -47.359375 z m 42.421875 0 l 47.363281 47.359375 h 21.214844 l -47.363282 -47.359375 z m 42.429687 0 l 29.839844 29.839844 v -21.210938 l -8.628906 -8.628906 z m -98.160156 7.90625 v 21.214844 l 18.238281 18.238281 h 21.214844 z m 0 0"/>
                </g>
            </g>
        </g>
    </g>
</svg>
